<svg xmlns="http://www.w3.org/2000/svg" style="display:none"><symbol id="crop-apple" viewBox="0 0 24 24" fill="none" stroke="#3F3E3A" stroke-width="2.2" stroke-linecap="round" stroke-linejoin="round"><path fill="#D97E6A" d="M12 7.9c1.7-2 4.7-2.1 6.4.1 1.9 2.3 1.5 6.2-.8 9.2-1.2 1.6-2.6 2.8-3.9 2.3-.6-.2-1.5-.2-2.4 0-1.3.5-2.7-.7-3.9-2.3-2.3-3-2.7-6.9-.8-9.2C8.3 5.8 11.3 5.9 12 7.9z"/><circle cx="9.1" cy="11.6" r="1.1" fill="#FBF7ED" stroke="none"/><path d="M12 8c-.4-1.7.4-3 2-3.6"/><path fill="#8A9B6E" stroke="none" d="M14.2 4.3c1.8-.9 3.6-.7 4.9.6-1.4 1.2-3.2 1.3-4.9-.6z"/></symbol><symbol id="crop-pear" viewBox="0 0 24 24" fill="none" stroke="#3F3E3A" stroke-width="2.2" stroke-linecap="round" stroke-linejoin="round"><path fill="#C9C96E" d="M12 5.1c1.1 0 1.8.8 1.9 2 .1 1.5-.3 2.2 1.6 3.7 1.6 1.3 2.5 2.8 2.5 4.7 0 3.5-2.7 6.2-6 6.2s-6-2.7-6-6.2c0-1.9.9-3.4 2.5-4.7 1.9-1.5 1.5-2.2 1.6-3.7.1-1.2.8-2 1.9-2z"/><path d="M12 5V3"/><path fill="#8A9B6E" stroke="none" d="M12.3 3.2c1.6-.9 3.3-.8 4.6.3-1.3 1.1-3 1.1-4.6-.3z"/></symbol><symbol id="crop-plum" viewBox="0 0 24 24" fill="none" stroke="#3F3E3A" stroke-width="2.2" stroke-linecap="round" stroke-linejoin="round"><path fill="#8E77A0" d="M12 6.4c3.8 0 6.4 2.6 6.4 6.3S15.8 19.8 12 19.8s-6.4-3.4-6.4-7.1S8.2 6.4 12 6.4z"/><path stroke-width="1.4" d="M13 8.6c1.3 1.6 1.3 5.9 0 7.5"/><path d="M12 6.4V4.5"/><path fill="#8A9B6E" stroke="none" d="M12.3 4.6c1.6-.9 3.3-.8 4.6.3-1.3 1.1-3 1.1-4.6-.3z"/></symbol><symbol id="crop-cherry" viewBox="0 0 24 24" fill="none" stroke="#3F3E3A" stroke-width="2.2" stroke-linecap="round" stroke-linejoin="round"><circle cx="8.8" cy="15.4" r="2.9" fill="#D97E6A"/><circle cx="15.2" cy="16.2" r="2.9" fill="#D97E6A"/><circle cx="7.9" cy="14.5" r=".8" fill="#FBF7ED" stroke="none"/><circle cx="14.3" cy="15.3" r=".8" fill="#FBF7ED" stroke="none"/><path d="M8.8 12.4c.4-3 1.6-5 3.4-6.5M15.2 13.2c-.3-2.9-1.4-5.2-3-7.3"/><path fill="#8A9B6E" stroke="none" d="M12.4 5.3c1.7-.9 3.4-.8 4.7.3-1.3 1.1-3 1.1-4.7-.3z"/></symbol><symbol id="crop-sweet-cherry" viewBox="0 0 24 24" fill="none" stroke="#3F3E3A" stroke-width="2.2" stroke-linecap="round" stroke-linejoin="round"><circle cx="11.4" cy="14.2" r="4.8" fill="#E06A7E"/><circle cx="9.7" cy="12.6" r="1.1" fill="#FBF7ED" stroke="none"/><path d="M11.6 9.4C11.7 6.8 12.9 4.8 15.2 3.4"/><path fill="#8A9B6E" stroke="none" d="M14.1 3.4c1.9-.7 3.6-.3 4.8 1-1.5 1-3.2 1-4.8-1z"/></symbol><symbol id="crop-currant" viewBox="0 0 24 24" fill="none" stroke="#3F3E3A" stroke-width="2.2" stroke-linecap="round" stroke-linejoin="round"><circle cx="9.3" cy="15" r="2.5" fill="#C07F78"/><circle cx="14.7" cy="15" r="2.5" fill="#C07F78"/><circle cx="12" cy="18" r="2.5" fill="#C07F78"/><path stroke-width="1.5" d="M12 11.6v1M12 11.6 9.5 13.4M12 11.6l2.5 1.8M12 11.6l-.2 4.4"/><path fill="#8A9B6E" d="M12 11.4c-2.1-.1-3.7-1.3-4.3-3.3 1.9-.4 3.4.2 4.3 1.6.9-1.4 2.4-2 4.3-1.6-.6 2-2.2 3.2-4.3 3.3z"/></symbol><symbol id="crop-gooseberry" viewBox="0 0 24 24" fill="none" stroke="#3F3E3A" stroke-width="2.2" stroke-linecap="round" stroke-linejoin="round"><ellipse cx="12" cy="13.8" rx="4.6" ry="5.4" fill="#B9C79B"/><path stroke-width="1.3" d="M9.6 9.4c-1 2.5-1 6.9 0 9.4M12 8.4v11M14.4 9.4c1 2.5 1 6.9 0 9.4"/><path d="M12 8.4V6.2"/></symbol><symbol id="crop-honeysuckle" viewBox="0 0 24 24" fill="none" stroke="#3F3E3A" stroke-width="2.2" stroke-linecap="round" stroke-linejoin="round"><path fill="#7E93B8" d="M8.9 8.6c1.6-.4 2.9.6 3.2 2.2l.9 4.2c.4 1.8-.7 3.4-2.3 3.7-1.6.4-3-.6-3.4-2.3l-.9-4.2c-.3-1.6.6-3.1 2.5-3.6z"/><path fill="#7E93B8" d="M15.6 10.8c1.5-.3 2.8.6 3.1 2.1l.6 3.5c.3 1.7-.7 3.1-2.3 3.4-1.5.3-2.9-.7-3.2-2.3l-.6-3.5c-.3-1.6.6-2.9 2.4-3.2z"/><path d="M11 8.4c.8-1.5 2-2.4 3.7-2.7"/><path fill="#8A9B6E" stroke="none" d="M13.2 5.6c1.7-1 3.4-1 4.8-.1-1.2 1.3-2.9 1.5-4.8.1z"/></symbol><symbol id="crop-raspberry" viewBox="0 0 24 24" fill="none" stroke="#3F3E3A" stroke-width="2.2" stroke-linecap="round" stroke-linejoin="round"><path fill="#E06A7E" d="M7.9 13.9c0-3 1.8-5.1 4.1-5.1s4.1 2.1 4.1 5.1c0 2.7-1.8 4.8-4.1 4.8s-4.1-2.1-4.1-4.8z"/><path stroke-width="1.4" d="M10 11.8c.4.6.4 1.3 0 1.9M12.3 11.6c.4.6.4 1.3 0 1.9M10.8 15c.4.6.4 1.3 0 1.9M13.2 14.8c.4.6.4 1.3 0 1.9"/><path fill="#8A9B6E" stroke="none" d="M8.9 9.4c1-1 2-1.4 3.1-1.4s2.1.4 3.1 1.4c-1 .7-2 1-3.1 1s-2.1-.3-3.1-1z"/><path d="M12 8V6"/></symbol><symbol id="crop-blackberry" viewBox="0 0 24 24" fill="none" stroke="#3F3E3A" stroke-width="2.2" stroke-linecap="round" stroke-linejoin="round"><circle cx="9.5" cy="12.6" r="2" fill="#6E5A80" stroke-width="1.7"/><circle cx="14.5" cy="12.6" r="2" fill="#6E5A80" stroke-width="1.7"/><circle cx="12" cy="10.9" r="2" fill="#6E5A80" stroke-width="1.7"/><circle cx="10.4" cy="15.6" r="2" fill="#6E5A80" stroke-width="1.7"/><circle cx="13.6" cy="15.6" r="2" fill="#6E5A80" stroke-width="1.7"/><circle cx="12" cy="18.1" r="2" fill="#6E5A80" stroke-width="1.7"/><path d="M12 8.6V6.4"/><path fill="#8A9B6E" stroke="none" d="M12.3 6.4c1.6-.9 3.3-.8 4.6.3-1.3 1.1-3 1.1-4.6-.3z"/></symbol><symbol id="crop-grape" viewBox="0 0 24 24" fill="none" stroke="#3F3E3A" stroke-width="2.2" stroke-linecap="round" stroke-linejoin="round"><circle cx="9" cy="11.8" r="2" fill="#8E77A0" stroke-width="1.7"/><circle cx="15" cy="11.8" r="2" fill="#8E77A0" stroke-width="1.7"/><circle cx="12" cy="11.4" r="2" fill="#8E77A0" stroke-width="1.7"/><circle cx="10.5" cy="15.4" r="2" fill="#8E77A0" stroke-width="1.7"/><circle cx="13.5" cy="15.4" r="2" fill="#8E77A0" stroke-width="1.7"/><circle cx="12" cy="18.6" r="2" fill="#8E77A0" stroke-width="1.7"/><path d="M12 9.2V7M12 7c2.2-.3 3.4-1.3 3.6-3"/><path fill="#8A9B6E" stroke="none" d="M11.7 7c-1.9-.3-3.2-1.3-3.8-3.1 2-.2 3.4.6 4.2 2.4z"/></symbol><symbol id="crop-serviceberry" viewBox="0 0 24 24" fill="none" stroke="#3F3E3A" stroke-width="2.2" stroke-linecap="round" stroke-linejoin="round"><circle cx="9.2" cy="12.2" r="1.9" fill="#7E6A94" stroke-width="1.6"/><circle cx="14.8" cy="12.2" r="1.9" fill="#7E6A94" stroke-width="1.6"/><circle cx="12" cy="14.2" r="1.9" fill="#7E6A94" stroke-width="1.6"/><circle cx="10.3" cy="16.6" r="1.9" fill="#7E6A94" stroke-width="1.6"/><circle cx="13.7" cy="16.6" r="1.9" fill="#7E6A94" stroke-width="1.6"/><path d="M12 9.8V7.6M9.2 10.4 12 8.2M14.8 10.4 12 8.2"/><path fill="#8A9B6E" stroke="none" d="M10.2 7.4c-1.9-.3-3.2-1.3-3.9-3.1 2-.2 3.5.6 4.3 2.4z"/><path fill="#8A9B6E" stroke="none" d="M13.8 7.4c1.9-.3 3.2-1.3 3.9-3.1-2-.2-3.5.6-4.3 2.4z"/></symbol><symbol id="crop-blueberry" viewBox="0 0 24 24" fill="none" stroke="#3F3E3A" stroke-width="2.2" stroke-linecap="round" stroke-linejoin="round"><circle cx="9.4" cy="13.8" r="2.7" fill="#7E93B8"/><circle cx="14.6" cy="13.8" r="2.7" fill="#7E93B8"/><circle cx="12" cy="16.9" r="2.7" fill="#7E93B8"/><path stroke-width="1.3" d="m10.5 11.7.9 1 .5-1.2M15.7 11.7l-.9 1-.5-1.2M12.9 15l-.9 1-.5-1.2"/><path d="M12 11V8.8"/><path fill="#8A9B6E" stroke="none" d="M12.3 8.8c1.6-.9 3.3-.8 4.6.3-1.3 1.1-3 1.1-4.6-.3z"/></symbol><symbol id="crop-seabuckthorn" viewBox="0 0 24 24" fill="none" stroke="#3F3E3A" stroke-width="2.2" stroke-linecap="round" stroke-linejoin="round"><path d="M5.6 19C8.6 16.8 11.8 13.6 15 9.4"/><circle cx="7.9" cy="16" r="1.5" fill="#E8A05C" stroke-width="1.5"/><circle cx="10" cy="13.7" r="1.5" fill="#E8A05C" stroke-width="1.5"/><circle cx="12.1" cy="11.4" r="1.5" fill="#E8A05C" stroke-width="1.5"/><circle cx="14.2" cy="9.1" r="1.5" fill="#E8A05C" stroke-width="1.5"/><path fill="#8A9B6E" stroke="none" d="M15.9 7.2c2-.8 3.9-.5 5.4.9-1.7 1.2-3.5 1.2-5.4-.9z"/><path fill="#B9C79B" stroke="none" d="M4.9 18.3c.3-1.9 1.3-3.2 3-3.9.2 1.9-.6 3.3-3 3.9z"/></symbol><symbol id="crop-chokeberry" viewBox="0 0 24 24" fill="none" stroke="#3F3E3A" stroke-width="2.2" stroke-linecap="round" stroke-linejoin="round"><circle cx="9.6" cy="12.4" r="1.6" fill="#5E5670" stroke-width="1.6"/><circle cx="14.4" cy="12.4" r="1.6" fill="#5E5670" stroke-width="1.6"/><circle cx="12" cy="11.4" r="1.6" fill="#5E5670" stroke-width="1.6"/><circle cx="10.5" cy="15.2" r="1.6" fill="#5E5670" stroke-width="1.6"/><circle cx="13.5" cy="15.2" r="1.6" fill="#5E5670" stroke-width="1.6"/><circle cx="12" cy="17.6" r="1.6" fill="#5E5670" stroke-width="1.6"/><path d="M12 9.4V7.2"/><path fill="#8A9B6E" stroke="none" d="M12.3 7.2c1.6-.9 3.3-.8 4.6.3-1.3 1.1-3 1.1-4.6-.3z"/><path fill="#8A9B6E" stroke="none" d="M11.7 7.2c-1.9-.3-3.2-1.3-3.8-3.1 2-.2 3.4.6 4.2 2.4z"/></symbol><symbol id="crop-barberry" viewBox="0 0 24 24" fill="none" stroke="#3F3E3A" stroke-width="2.2" stroke-linecap="round" stroke-linejoin="round"><path d="M12 4.4c1.9 1.3 3.2 3 3.9 5.2M12 4.4c-.3 2.9.2 5.3 1.5 7.4"/><ellipse cx="13.2" cy="16.2" rx="1.8" ry="2.8" fill="#C75062" stroke-width="1.7"/><ellipse cx="16.4" cy="14" rx="1.7" ry="2.6" fill="#C75062" stroke-width="1.7"/><path stroke-width="1.5" d="M9.8 6.4l1.5 1"/><path fill="#B9C79B" stroke="none" d="M8.4 5.4c1.7-1 3.4-1 5 0-1.5 1.1-3.2 1.2-5 0z"/></symbol><symbol id="crop-potato" viewBox="0 0 24 24" fill="none" stroke="#3F3E3A" stroke-width="2.2" stroke-linecap="round" stroke-linejoin="round"><ellipse cx="10.2" cy="14" rx="4.8" ry="3.6" fill="#C9A96E"/><ellipse cx="16.4" cy="9.8" rx="3" ry="2.4" fill="#C9A96E"/><circle cx="9" cy="13.2" r=".6" fill="#3F3E3A" stroke="none"/><circle cx="11.6" cy="15" r=".6" fill="#3F3E3A" stroke="none"/><circle cx="12.4" cy="12.9" r=".6" fill="#3F3E3A" stroke="none"/><circle cx="16.9" cy="9.4" r=".5" fill="#3F3E3A" stroke="none"/></symbol><symbol id="crop-onion" viewBox="0 0 24 24" fill="none" stroke="#3F3E3A" stroke-width="2.2" stroke-linecap="round" stroke-linejoin="round"><path fill="#E8C87E" d="M12 8.2c3.6 0 6.1 2.9 6.1 6.3 0 3.5-2.5 5.5-6.1 5.5s-6.1-2-6.1-5.5c0-3.4 2.5-6.3 6.1-6.3z"/><path stroke-width="1.4" d="M9.3 10.7c-.7 1.9-.7 4.5 0 6.4M14.7 10.7c.7 1.9.7 4.5 0 6.4"/><path d="M10 8.4C9.7 6.8 9 5.7 7.9 4.9M12 8.2V4.6M14 8.4c.3-1.6 1-2.7 2.1-3.5"/></symbol><symbol id="crop-garlic" viewBox="0 0 24 24" fill="none" stroke="#3F3E3A" stroke-width="2.2" stroke-linecap="round" stroke-linejoin="round"><path fill="#F0E6CE" d="M12 7c3.3.2 5.7 2.7 5.7 6s-2.4 6-5.7 6-5.7-2.7-5.7-6S8.7 7.2 12 7z"/><path d="M10.5 7.4c.3-1.6.8-2.8 1.5-3.8.7 1 1.2 2.2 1.5 3.8"/><path stroke-width="1.4" d="M12 7.2v11.6M9.3 9.4c-.6 2.8-.6 5.4 0 8M14.7 9.4c.6 2.8.6 5.4 0 8"/></symbol><symbol id="crop-dill" viewBox="0 0 24 24" fill="none" stroke="#3F3E3A" stroke-width="2.2" stroke-linecap="round" stroke-linejoin="round"><path stroke-width="1.5" d="M12 20.6v-9M12 11.6 7.6 7.4M12 11.6l4.4-4.2M12 11.6 9.3 6.2M12 11.6l2.7-5.4M12 11.6 6.4 9.7M12 11.6l5.2-1.9"/><circle cx="7.6" cy="7.4" r=".7" fill="#3F3E3A" stroke="none"/><circle cx="16.4" cy="7.4" r=".7" fill="#3F3E3A" stroke="none"/><circle cx="9.3" cy="6.2" r=".7" fill="#3F3E3A" stroke="none"/><circle cx="14.7" cy="6.2" r=".7" fill="#3F3E3A" stroke="none"/><circle cx="6.4" cy="9.7" r=".7" fill="#3F3E3A" stroke="none"/><circle cx="17.6" cy="9.7" r=".7" fill="#3F3E3A" stroke="none"/><circle cx="12" cy="11.6" r=".9" fill="#3F3E3A" stroke="none"/><path stroke-width="1.5" d="M12 20.6c-1.2-.3-2.1-1-2.7-2.1M12 20.6c1.2-.3 2.1-1 2.7-2.1"/></symbol><symbol id="crop-radish" viewBox="0 0 24 24" fill="none" stroke="#3F3E3A" stroke-width="2.2" stroke-linecap="round" stroke-linejoin="round"><circle cx="12" cy="14.4" r="3.6" fill="#D97E6A"/><path d="M12 18v2.4"/><circle cx="10.6" cy="13.4" r=".8" fill="#FBF7ED" stroke="none"/><path fill="#8A9B6E" d="M10.3 11.6C9 9.6 9 7.5 10.4 5.4c1.6 2.1 1.7 4.2.5 6.2z"/><path fill="#B9C79B" d="M13.7 11.6c-.6-2.3.1-4.3 2.1-5.8.9 2.3.3 4.4-1.7 5.8z"/></symbol><symbol id="crop-parsley" viewBox="0 0 24 24" fill="none" stroke="#3F3E3A" stroke-width="2.2" stroke-linecap="round" stroke-linejoin="round"><path d="M12 20.6v-6.2"/><path fill="#8A9B6E" d="M12 14.2 9.4 12.7c-1.5-.9-2-2.7-1.2-4.3 1.2.5 2 1.5 2.4 2.9-.2-1.5.3-2.9 1.4-3.9 1.1 1 1.6 2.4 1.4 3.9.4-1.4 1.2-2.4 2.4-2.9.8 1.6.3 3.4-1.2 4.3z"/><path stroke-width="1.4" d="M12 12.2v2"/></symbol><symbol id="crop-lettuce" viewBox="0 0 24 24" fill="none" stroke="#3F3E3A" stroke-width="2.2" stroke-linecap="round" stroke-linejoin="round"><path fill="#B9C79B" d="M12 7.2c3.4 0 6.1 2.4 6.1 5.6 0 3.3-2.7 5.5-6.1 5.5s-6.1-2.2-6.1-5.5c0-3.2 2.7-5.6 6.1-5.6z"/><path stroke-width="1.4" d="M12 9.4v7M9.2 10.6c.5 1.9.5 3.9 0 5.8M14.8 10.6c-.5 1.9-.5 3.9 0 5.8"/><path stroke-width="1.5" d="M6.6 10.4C8 8.9 9.8 8.1 12 8.1s4 .8 5.4 2.3"/></symbol><symbol id="crop-spinach" viewBox="0 0 24 24" fill="none" stroke="#3F3E3A" stroke-width="2.2" stroke-linecap="round" stroke-linejoin="round"><path fill="#6F8257" d="M11.2 14.4c-2.9-.3-4.9-2.2-5.2-5.2 2.9.3 4.9 2.2 5.2 5.2z"/><path fill="#6F8257" d="M12.8 15.2c-.3-3.7 1.2-6.5 4.4-7.6.3 3.7-1.2 6.5-4.4 7.6z"/><path d="M12 20.6c-.5-2-.4-4.2.3-6.4M12 20.6c.6-1.7 1.5-3.5 2.6-5"/></symbol><symbol id="crop-cilantro" viewBox="0 0 24 24" fill="none" stroke="#3F3E3A" stroke-width="2.2" stroke-linecap="round" stroke-linejoin="round"><path d="M12 20.6v-5.8"/><path fill="#8A9B6E" d="m12 14.8-2.6 1c-1.1.4-2.3 0-3-1 .7-.9 1.7-1.3 2.9-1.1-1.1-.7-1.7-1.8-1.5-3.1 1.2.3 2.1 1.1 2.6 2.3L12 14l1-1.1c.5-1.2 1.4-2 2.6-2.3.2 1.3-.4 2.4-1.5 3.1 1.2-.2 2.2.2 2.9 1.1-.7 1-1.9 1.4-3 1z"/></symbol><symbol id="crop-cucumber" viewBox="0 0 24 24" fill="none" stroke="#3F3E3A" stroke-width="2.2" stroke-linecap="round" stroke-linejoin="round"><path fill="#A8B39A" d="M5.2 18.8c-1.7-1.7-1.7-4.2 0-5.9l7.7-7.7c1.7-1.7 4.2-1.7 5.9 0s1.7 4.2 0 5.9l-7.7 7.7c-1.7 1.7-4.2 1.7-5.9 0z"/><circle cx="15.8" cy="7.9" r=".7" fill="#3F3E3A" stroke="none"/><circle cx="12.6" cy="11.1" r=".7" fill="#3F3E3A" stroke="none"/><circle cx="9.4" cy="14.3" r=".7" fill="#3F3E3A" stroke="none"/><path stroke-width="1.4" d="M17.8 10.2 10.6 17.4"/></symbol><symbol id="crop-tomato" viewBox="0 0 24 24" fill="none" stroke="#3F3E3A" stroke-width="2.2" stroke-linecap="round" stroke-linejoin="round"><circle cx="12" cy="13.8" r="6.6" fill="#D97E6A"/><circle cx="9.6" cy="11.8" r="1.1" fill="#FBF7ED" stroke="none"/><path d="M12 7.2V4.8M12 7.2 9.4 6.1M12 7.2l2.6-1.1"/><path fill="#8A9B6E" stroke="none" d="M9.4 6.1c1.7-.9 3.5-.9 5.2 0-1.7.9-3.5.9-5.2 0z"/></symbol><symbol id="crop-pepper" viewBox="0 0 24 24" fill="none" stroke="#3F3E3A" stroke-width="2.2" stroke-linecap="round" stroke-linejoin="round"><path fill="#D97E6A" d="M8.2 8.8c1-1 2.2-1.3 3.8-.9 1.6-.4 2.8-.1 3.8.9 1.5 1.7 1.8 4.5.4 7.2-1.1 2.2-2.6 3.5-4.2 3.5s-3.1-1.3-4.2-3.5c-1.4-2.7-1.1-5.5.4-7.2z"/><path stroke-width="1.4" d="M9.9 9.8c-.6 3-.5 6 .2 9M14.1 9.8c.6 3 .5 6-.2 9"/><path d="M12 7.9V5.4"/><path fill="#8A9B6E" stroke="none" d="M9.6 7.7c.8-.5 1.6-.8 2.4-.8s1.6.3 2.4.8c-.6.9-1.4 1.3-2.4 1.3s-1.8-.4-2.4-1.3z"/></symbol><symbol id="crop-zucchini" viewBox="0 0 24 24" fill="none" stroke="#3F3E3A" stroke-width="2.2" stroke-linecap="round" stroke-linejoin="round"><path fill="#A8B39A" d="M7 18.6c-1.9-1.9-1.9-4.8 0-6.7l4.9-4.9c1.9-1.9 4.8-1.9 6.7 0s1.9 4.8 0 6.7l-4.9 4.9c-1.9 1.9-4.8 1.9-6.7 0z"/><path stroke-width="1.4" d="M10.2 8.8 7 12c-1.3 1.3-1.6 3-1 4.6M13.8 8.8 17 12c1.3 1.3 1.6 3 1 4.6"/><circle cx="17.9" cy="6.7" r="1.1" fill="#6F8257"/></symbol><symbol id="crop-pumpkin" viewBox="0 0 24 24" fill="none" stroke="#3F3E3A" stroke-width="2.2" stroke-linecap="round" stroke-linejoin="round"><path fill="#E8A05C" d="M12 7.8c4.3 0 7.8 2.8 7.8 6.3s-3.5 6.3-7.8 6.3-7.8-2.8-7.8-6.3S7.7 7.8 12 7.8z"/><path stroke-width="1.4" d="M12 7.8v12.6M7.9 8.7c-1.1 1.5-1.7 3.4-1.7 5.4s.6 3.9 1.7 5.4M16.1 8.7c1.1 1.5 1.7 3.4 1.7 5.4s-.6 3.9-1.7 5.4"/><path d="M12 7.8V5.8c0-.9.7-1.5 1.7-1.5"/></symbol><symbol id="crop-pattypan" viewBox="0 0 24 24" fill="none" stroke="#3F3E3A" stroke-width="2.2" stroke-linecap="round" stroke-linejoin="round"><path fill="#F0DC9E" d="M12 7.6c1 0 1.9.2 2.7.7.9-.4 1.8-.4 2.5.2s1 1.5.8 2.4c.6.8.9 1.7.9 2.7 0 3.4-3.1 6-6.9 6s-6.9-2.6-6.9-6c0-1 .3-1.9.9-2.7-.2-.9.1-1.8.8-2.4.7-.6 1.6-.6 2.5-.2.8-.5 1.7-.7 2.7-.7z"/><circle cx="12" cy="11.8" r="1.1" fill="#A9825F" stroke="none"/><path stroke-width="1.4" d="M7.2 13.4c1.4.7 3 1 4.8 1s3.4-.3 4.8-1"/></symbol><symbol id="crop-carrot" viewBox="0 0 24 24" fill="none" stroke="#3F3E3A" stroke-width="2.2" stroke-linecap="round" stroke-linejoin="round"><path fill="#E8A05C" d="M13.4 6.2l4.4 4.4-7.6 8.1c-1 1.1-2.7 1.2-3.8.1-1.1-1.1-1-2.8.1-3.8z"/><path stroke-width="1.4" d="M14.6 8.6l1.2 1.2M12.6 10.6l1.2 1.2"/><path d="M16.2 5.2c.9-1 2.1-1.5 3.5-1.4M18.6 7.6c.9-.2 1.8 0 2.6.7"/></symbol><symbol id="crop-strawberry" viewBox="0 0 24 24" fill="none" stroke="#3F3E3A" stroke-width="2.2" stroke-linecap="round" stroke-linejoin="round"><path fill="#D97E6A" d="M12 20.3c-3.5-1.6-6-4.4-6-8 0-2.4 1.6-4 3.8-4 1 0 1.7.3 2.2.8.5-.5 1.2-.8 2.2-.8 2.2 0 3.8 1.6 3.8 4 0 3.6-2.5 6.4-6 8z"/><circle cx="10" cy="13.4" r=".7" fill="#FBF7ED" stroke="none"/><circle cx="14" cy="13.4" r=".7" fill="#FBF7ED" stroke="none"/><circle cx="12" cy="16.4" r=".7" fill="#FBF7ED" stroke="none"/><path d="M9.5 5.7c1.7-.7 3.3-.7 5 0M12 5.4V3.8"/></symbol><symbol id="crop-wild-strawberry" viewBox="0 0 24 24" fill="none" stroke="#3F3E3A" stroke-width="2.2" stroke-linecap="round" stroke-linejoin="round"><path fill="#E8A5A0" d="M12 10.4c.9-.6 1.9-.8 2.9-.5 1.6.4 2.5 1.7 2.4 3.4-.1 2.7-2.1 5-5.3 6.5-3.2-1.5-5.2-3.8-5.3-6.5-.1-1.7.8-3 2.4-3.4 1-.3 2-.1 2.9.5z"/><circle cx="10.4" cy="13.6" r=".6" fill="#FBF7ED" stroke="none"/><circle cx="13.6" cy="13.6" r=".6" fill="#FBF7ED" stroke="none"/><circle cx="12" cy="16.2" r=".6" fill="#FBF7ED" stroke="none"/><path d="M12 10V8.4"/><circle cx="17.2" cy="6.4" r="1.9" fill="#F0DC9E" stroke-width="1.5"/><circle cx="17.2" cy="6.4" r=".7" fill="#A9772F" stroke="none"/><path fill="#8A9B6E" stroke="none" d="M7.4 7.6c1.5-.8 3-.8 4.4 0-1.4.9-2.9.9-4.4 0z"/></symbol><symbol id="crop-turnip" viewBox="0 0 24 24" fill="none" stroke="#3F3E3A" stroke-width="2.2" stroke-linecap="round" stroke-linejoin="round"><path fill="#F0E6CE" d="M12 8.6c4 0 6.9 2.3 6.9 5.4 0 2.4-1.5 4.5-3.7 5.6L12 21l-3.2-1.4c-2.2-1.1-3.7-3.2-3.7-5.6 0-3.1 2.9-5.4 6.9-5.4z"/><path fill="#8E77A0" stroke="none" d="M12 8.6c4 0 6.9 2.3 6.9 5.4 0 .5-.1 1-.2 1.5H5.3c-.1-.5-.2-1-.2-1.5 0-3.1 2.9-5.4 6.9-5.4z"/><path stroke-width="1.6" d="M5.5 15.5h13"/><path d="M10 8.9c-.9-1.4-.9-2.9 0-4.5M14 8.9c.9-1.4.9-2.9 0-4.5"/></symbol><symbol id="crop-eggplant" viewBox="0 0 24 24" fill="none" stroke="#3F3E3A" stroke-width="2.2" stroke-linecap="round" stroke-linejoin="round"><path fill="#6E5A80" d="M14.6 9.2c2.8.9 4.2 3.5 3.5 6.6-.8 3.4-3.9 5.5-7.2 4.8-3-.6-4.9-3.3-4.1-6.3.7-2.7 3-4.4 5.7-4.5.7-.5 1.4-.8 2.1-.6z"/><path fill="#8A9B6E" stroke="none" d="M9.4 9.2c1.4-1.4 3-1.9 4.9-1.5-.6 1.9-1.9 3-3.9 3.3z"/><path d="M13.9 7.9c.4-1.4 1.3-2.3 2.7-2.8"/></symbol><symbol id="crop-pea" viewBox="0 0 24 24" fill="none" stroke="#3F3E3A" stroke-width="2.2" stroke-linecap="round" stroke-linejoin="round"><path fill="#B9C79B" d="M6.9 18.9c-1.9-1.9-1.9-4.8 0-6.7l5-5c1.9-1.9 4.8-1.9 6.7 0 .4.4.7.8.9 1.3-1.9 0-3.6.7-5 2.1l-3.3 3.3c-1.4 1.4-2.1 3.1-2.1 5-.8-.2-1.6-.5-2.2-1z"/><circle cx="10.6" cy="12.4" r="1.2" fill="#8A9B6E" stroke="none"/><circle cx="12.6" cy="10.4" r="1.2" fill="#8A9B6E" stroke="none"/><circle cx="14.6" cy="8.4" r="1.2" fill="#8A9B6E" stroke="none"/><path d="M18.6 7.4c.9-.9 1.3-2 1.1-3.3"/></symbol><symbol id="crop-bean" viewBox="0 0 24 24" fill="none" stroke="#3F3E3A" stroke-width="2.2" stroke-linecap="round" stroke-linejoin="round"><path fill="#8A9B6E" d="M6.6 17.8c-1.8-1.8-1.8-4.6 0-6.4l4.8-4.8c1.8-1.8 4.6-1.8 6.4 0s1.8 4.6 0 6.4l-4.8 4.8c-1.8 1.8-4.6 1.8-6.4 0z"/><path stroke-width="1.4" d="M9.4 9.4 6.9 11.9c-1.2 1.2-1.4 2.8-.7 4.4M14.6 9.4l2.5 2.5c1.2 1.2 1.4 2.8.7 4.4"/><circle cx="11" cy="13" r="1.1" fill="#B9C79B" stroke="none"/></symbol><symbol id="crop-cabbage" viewBox="0 0 24 24" fill="none" stroke="#3F3E3A" stroke-width="2.2" stroke-linecap="round" stroke-linejoin="round"><path fill="#B9C79B" d="M12 7.2c3.9 0 7 2.8 7 6.4 0 3.7-3.1 6.6-7 6.6s-7-2.9-7-6.6c0-3.6 3.1-6.4 7-6.4z"/><path fill="#A8B39A" stroke="none" d="M5.4 12.4c-1.3.9-2 2.2-2 3.8 1.5.4 2.9.1 4.1-.9-1-.8-1.7-1.7-2.1-2.9z"/><path fill="#A8B39A" stroke="none" d="M18.6 12.4c1.3.9 2 2.2 2 3.8-1.5.4-2.9.1-4.1-.9 1-.8 1.7-1.7 2.1-2.9z"/><path stroke-width="1.4" d="M12 9.4c-.4 2.8-.4 5.4 0 8.2M8.8 11c1 .9 1.6 2 1.8 3.5M15.2 11c-1 .9-1.6 2-1.8 3.5"/></symbol><symbol id="crop-beet" viewBox="0 0 24 24" fill="none" stroke="#3F3E3A" stroke-width="2.2" stroke-linecap="round" stroke-linejoin="round"><path fill="#B85C74" d="M12 9.2c3.4 0 5.8 2.2 5.8 5.2 0 2.4-1.3 4.3-3.4 5.3L12 21l-2.4-1.3c-2.1-1-3.4-2.9-3.4-5.3 0-3 2.4-5.2 5.8-5.2z"/><path d="M12 18.6v2.2"/><path stroke-width="1.6" d="M10.6 9.4C9.8 7.6 8.7 6.5 7.2 6M13.4 9.4c.8-1.8 1.9-2.9 3.4-3.4"/><path fill="#8A9B6E" stroke="none" d="M7.2 6c1.9-.9 3.7-.8 5.4.4-1.7 1.1-3.5 1.1-5.4-.4z"/><path fill="#8A9B6E" stroke="none" d="M16.8 6c-1.9-.9-3.7-.8-5.4.4 1.7 1.1 3.5 1.1 5.4-.4z"/></symbol><symbol id="crop-melon" viewBox="0 0 24 24" fill="none" stroke="#3F3E3A" stroke-width="2.2" stroke-linecap="round" stroke-linejoin="round"><ellipse cx="12" cy="13.2" rx="6.6" ry="4.9" fill="#F0DC9E"/><path stroke-width="1.1" d="M6 11.3c3.9 1.4 8.1 1.4 12 0M6 15.1c3.9 1.4 8.1 1.4 12 0M9.4 8.6c-1.4 3-1.4 6.4 0 9.4M14.6 8.6c1.4 3 1.4 6.4 0 9.4"/><path d="M12 8.3V6.4"/></symbol><symbol id="crop-watermelon" viewBox="0 0 24 24" fill="none" stroke="#3F3E3A" stroke-width="2.2" stroke-linecap="round" stroke-linejoin="round"><ellipse cx="12" cy="13.2" rx="6.8" ry="5" fill="#A8C686"/><path stroke-width="2" d="M9 8.7c-.8 2.9-.8 6 0 8.9M15 8.7c.8 2.9.8 6 0 8.9M12 8.2v10"/><path d="M12 8.2c-.6-1.4.1-2.6 1.9-3.3"/></symbol><symbol id="crop-arugula" viewBox="0 0 24 24" fill="none" stroke="#3F3E3A" stroke-width="2.2" stroke-linecap="round" stroke-linejoin="round"><path d="M12 20.6V8.4"/><path stroke-width="1.5" d="M12 10.4c-1.1-.2-2-.8-2.7-1.9M12 10.4c1.1-.2 2-.8 2.7-1.9M12 13.2c-1.3-.2-2.3-.9-3-2.1M12 13.2c1.3-.2 2.3-.9 3-2.1M12 16c-1.4-.2-2.5-.9-3.2-2.2M12 16c1.4-.2 2.5-.9 3.2-2.2"/><path fill="#6F8257" d="M12 8.2c-1-.9-1.4-2-1.2-3.4 1 .3 1.7 1 2.1 2 .3-1.2 1-2 2.1-2.4.2 1.4-.2 2.6-1.3 3.5z"/></symbol><symbol id="crop-sorrel" viewBox="0 0 24 24" fill="none" stroke="#3F3E3A" stroke-width="2.2" stroke-linecap="round" stroke-linejoin="round"><path fill="#6F8257" d="M9.8 13.4c-2-.4-3.4-1.7-3.8-3.7 1.9.2 3.3 1.1 4.2 2.8-.2-1.7.3-3.2 1.6-4.4 1.3 1.2 1.8 2.7 1.6 4.4.9-1.7 2.3-2.6 4.2-2.8-.4 2-1.8 3.3-3.8 3.7l-2 .2z"/><path d="M12 13.6v7"/><path stroke-width="1.4" d="M12 16.6c-1-.2-1.8-.7-2.4-1.6M12 18.6c1-.2 1.8-.7 2.4-1.6"/></symbol></svg>